<svg xmlns="http://www.w3.org/2000/svg" width="24" height="24" viewBox="0 0 24 24"><g transform="translate(-1743 -72)"><path fill="none" d="M0,0H24V24H0Z" data-name="Path 3668" transform="translate(1743 72)"/><path fill="#525863" d="M-2045.1,19.2a.9.9,0,0,1-.9-.9V12.9a.9.9,0,0,1,.9-.9.9.9,0,0,1,.9.9v3.227l5.2-5.2a.9.9,0,0,1,1.273,0,.9.9,0,0,1,0,1.273l-5.2,5.2h3.227a.9.9,0,0,1,.9.9.9.9,0,0,1-.9.9Zm9.936-10.927a.9.9,0,0,1,0-1.273l5.2-5.2h-3.227a.9.9,0,0,1-.9-.9.9.9,0,0,1,.9-.9h5.4a.9.9,0,0,1,.9.9V6.3a.9.9,0,0,1-.9.9.9.9,0,0,1-.9-.9V3.073l-5.2,5.2a.9.9,0,0,1-.636.264A.9.9,0,0,1-2035.164,8.273Z" data-name="Path 3561" transform="translate(3791.4 74.4)"/></g></svg>